# xmcd CD database file
#
# Track frame offsets:
#	150
#	20740
#	36582
#	61152
#	80812
#	99007
#	116347
#	133597
#	152477
#	171070
#	187742
#	204080
#	224325
#	234507
#	251450
#	266995
#	306905
#
# Disc length: 4440 seconds
#
# Revision: 2
# Processed by: cddbd v1.5.2PL0 Copyright (c) Steve Scherf et al.
# Submitted via: CDex 1.51
#
DISCID=e1115611
DTITLE=Megadeth - Youthanasia (Remaster)
DYEAR=2004
DGENRE=Heavy Metal
TTITLE0=Reckoning Day
TTITLE1=Train Of Consequences
TTITLE2=Addicted To Chaos
TTITLE3=A Tout Le Monde
TTITLE4=Elysian Fields
TTITLE5=The Killing Road
TTITLE6=Blood Of Heroes
TTITLE7=Family Tree
TTITLE8=Youthanasia
TTITLE9=I Thougth I Knew It All
TTITLE10=Black Curtains
TTITLE11=Victory
TTITLE12=Millennium Of The Blind
TTITLE13=New World Order (Demo)
TTITLE14=Absolution (Instrumental)
TTITLE15=A Tout Le Monde (Demo)
TTITLE16=Deta
EXTD=YEAR: 2004
EXTT0=
EXTT1=
EXTT2=
EXTT3=
EXTT4=
EXTT5=
EXTT6=
EXTT7=
EXTT8=
EXTT9=
EXTT10=
EXTT11=
EXTT12=
EXTT13=
EXTT14=
EXTT15=
EXTT16=
PLAYORDER=
